<?xml version="1.0" standalone="no"?>
<!DOCTYPE svg PUBLIC "-//W3C//DTD SVG 20010904//EN"
 "http://www.w3.org/TR/2001/REC-SVG-20010904/DTD/svg10.dtd">
<svg version="1.0" xmlns="http://www.w3.org/2000/svg"
 width="260.000000pt" height="260.000000pt" viewBox="0 0 260.000000 260.000000"
 preserveAspectRatio="xMidYMid meet">
<metadata>
Created by potrace 1.11, written by Peter Selinger 2001-2013
</metadata>
<g transform="translate(0.000000,260.000000) scale(0.100000,-0.100000)"
fill="#000000" stroke="none">
<path d="M717 2274 l-557 -327 0 -646 c0 -355 4 -651 8 -657 4 -5 258 -153
566 -328 359 -204 564 -315 575 -311 9 3 262 151 564 327 l547 321 0 627 c0
345 -3 640 -6 656 -6 26 -60 59 -561 344 -305 173 -560 316 -567 318 -6 1
-262 -144 -569 -324z m715 -350 c108 -15 128 -15 244 0 147 19 177 12 182 -39
4 -52 -8 -59 -96 -60 -85 0 -106 -9 -125 -55 -7 -15 -13 -168 -17 -395 -6
-351 -8 -373 -29 -427 -84 -215 -369 -313 -628 -217 -77 29 -172 123 -196 193
-58 172 24 343 181 377 74 15 139 -1 183 -47 30 -31 34 -41 34 -89 0 -46 -4
-59 -27 -82 -39 -38 -92 -37 -125 2 -24 27 -26 46 -8 88 6 14 2 17 -22 17 -53
0 -96 -65 -95 -146 1 -134 112 -224 277 -224 105 0 171 23 226 79 77 76 81
100 87 490 3 234 1 346 -7 373 -16 51 -57 72 -124 64 -66 -9 -100 11 -95 57 2
22 11 35 28 44 31 16 12 16 152 -3z"/>
</g>
</svg>
